<svg xmlns="http://www.w3.org/2000/svg" width="98.878" height="80" viewBox="0 0 98.878 80"><defs><style>.a,.c{fill:#4a45b1;}.a{opacity:0.502;}.b{fill:#dad9f0;}</style></defs><g transform="translate(-1248 -632)"><path class="a" d="M1332,712h-80a4,4,0,0,1-4-4V656a4,4,0,0,1,4-4h80a4,4,0,0,1,4,4v52A4,4,0,0,1,1332,712Z"/><path class="b" d="M1328,677.116h-68V640a8,8,0,0,1,8-8h52a8,8,0,0,1,8,8Z"/><path class="c" d="M1332.876,712h-79.752a4,4,0,0,1-3.88-4.972l10-40a4,4,0,0,1,3.88-3.028h79.752a4,4,0,0,1,3.88,4.972l-10,40A4,4,0,0,1,1332.876,712Z"/></g></svg>