<svg xmlns="http://www.w3.org/2000/svg" width="24" height="24" viewBox="0 0 24 24"><defs><style>.a{fill:#131336;}</style></defs><g transform="translate(-1345 -28)"><path class="a" d="M1357.1,52a2.947,2.947,0,0,1-3-3c0-.413-.108-.6-.4-.7a1.167,1.167,0,0,0-.366-.066.59.59,0,0,0-.434.166,2.937,2.937,0,0,1-4.3.1,2.9,2.9,0,0,1,0-4.2.665.665,0,0,0,.2-.8.681.681,0,0,0-.6-.4h-.2a3,3,0,1,1,0-6,.841.841,0,0,0,.7-.4.762.762,0,0,0-.1-.8,2.937,2.937,0,0,1-.1-4.3,2.764,2.764,0,0,1,2.063-.9,3.011,3.011,0,0,1,2.138.9,1.2,1.2,0,0,0,.62.239.4.4,0,0,0,.18-.039c.1-.1.1-.1.2-.1a.551.551,0,0,0,.3-.5V31a3,3,0,1,1,6,0c0,.3.2.6.4.6a.654.654,0,0,0,.286.066.579.579,0,0,0,.414-.166,3.087,3.087,0,0,1,2.2-.9,2.89,2.89,0,0,1,2.1.9,2.767,2.767,0,0,1,.9,2,3.043,3.043,0,0,1-.9,2.2.664.664,0,0,0-.2.8c.1.1.1.1.1.2a.552.552,0,0,0,.5.3h.2a3,3,0,1,1,0,6,.723.723,0,0,0-.7.4.9.9,0,0,0,.1.7,2.936,2.936,0,0,1,.1,4.3,2.764,2.764,0,0,1-2.062.9,3.011,3.011,0,0,1-2.137-.9.784.784,0,0,0-.545-.26.573.573,0,0,0-.256.06.679.679,0,0,0-.4.6V49a2.947,2.947,0,0,1-3,3Zm-3.8-5.7a1.985,1.985,0,0,1,1.1.2,2.579,2.579,0,0,1,1.7,2.4V49a1,1,0,1,0,2,0v-.2a2.592,2.592,0,0,1,1.6-2.4,2.489,2.489,0,0,1,1.121-.273,2.52,2.52,0,0,1,1.778.772,1.037,1.037,0,0,0,.8.4.99.99,0,0,0,.7-1.7,2.826,2.826,0,0,1-.6-3,2.593,2.593,0,0,1,2.4-1.6.977.977,0,0,0,1.1-1,.947.947,0,0,0-1-1h-.2a2.593,2.593,0,0,1-2.4-1.6.372.372,0,0,1-.1-.3,2.687,2.687,0,0,1,.6-2.7,1.184,1.184,0,0,0,.389-.831A.932.932,0,0,0,1364,32.9a.965.965,0,0,0-1.4,0,2.967,2.967,0,0,1-1.978.8,2.738,2.738,0,0,1-1.022-.2,2.5,2.5,0,0,1-1.6-2.4.977.977,0,0,0-1-1.1.947.947,0,0,0-1,1v.2a2.592,2.592,0,0,1-1.6,2.4.37.37,0,0,1-.3.1,2.674,2.674,0,0,1-.849.135,2.62,2.62,0,0,1-1.85-.735,1.186,1.186,0,0,0-.832-.389.933.933,0,0,0-.669.289.965.965,0,0,0,0,1.4,2.828,2.828,0,0,1,.6,3,2.581,2.581,0,0,1-2.4,1.7h-.1a1,1,0,0,0,0,2h.2a2.594,2.594,0,0,1,2.4,1.6,2.454,2.454,0,0,1-.5,2.9,1.036,1.036,0,0,0-.4.8.9.9,0,0,0,.3.7.966.966,0,0,0,1.4,0A2.75,2.75,0,0,1,1353.3,46.3ZM1357,44a4,4,0,1,1,4-4A4,4,0,0,1,1357,44Zm0-6a2,2,0,1,0,2,2A2,2,0,0,0,1357,38Z"/></g></svg>