<svg xmlns="http://www.w3.org/2000/svg" width="20" height="21.999" viewBox="0 0 20 21.999"><defs><style>.a{opacity:0.6;isolation:isolate;}.b{fill:#fff;}</style></defs><g class="a" transform="translate(-26 -153)"><path class="b" d="M43,175H29a2.944,2.944,0,0,1-3-3V161.015a.9.9,0,0,1,.4-.8l9-6.992a.789.789,0,0,1,.563-.225,1.08,1.08,0,0,1,.638.225l9,6.992a.9.9,0,0,1,.4.8V172a2.944,2.944,0,0,1-3,3ZM33,163.013h6a.946.946,0,0,1,1,1V173h3a.946.946,0,0,0,1-1V161.515l-8-6.193-8,6.193V172a.946.946,0,0,0,1,1h3v-8.99A.946.946,0,0,1,33,163.013Zm1,2h0V173h4v-7.99Z"/></g></svg>