<svg xmlns="http://www.w3.org/2000/svg" width="18.999" height="20" viewBox="0 0 18.999 20"><defs><style>.a{fill:#4c4cab;}</style></defs><g transform="translate(-862.001 -1090)"><path class="a" d="M880,1110h-5a1,1,0,0,1,0-2h2.6l-4.3-4.3a.99.99,0,1,1,1.4-1.4l4.3,4.3V1104a1,1,0,1,1,2,0v5a.607.607,0,0,1-.1.4,1.208,1.208,0,0,1-.5.5A.6.6,0,0,1,880,1110Zm-17-1a.905.905,0,0,1-.7-.3.97.97,0,0,1,0-1.4l15.3-15.3H875a1,1,0,0,1,0-2h5a.6.6,0,0,1,.4.1,1.21,1.21,0,0,1,.5.5.6.6,0,0,1,.1.4v5a1,1,0,0,1-2,0v-2.6l-15.3,15.3A.908.908,0,0,1,863,1109Zm5-11a.9.9,0,0,1-.7-.3l-5-5a.969.969,0,0,1,0-1.4.968.968,0,0,1,1.4,0l5,5a.966.966,0,0,1,0,1.4A.905.905,0,0,1,868,1098Z"/></g></svg>