<svg xmlns="http://www.w3.org/2000/svg" width="22" height="16" viewBox="0 0 22 16"><defs><style>.a{fill:#4c4cab;}</style></defs><g transform="translate(-812 -1092)"><path class="a" d="M824,1108a.6.6,0,0,1-.4-.1.964.964,0,0,1-.6-.9v-7a1.217,1.217,0,0,1-.4.8l-9,7a1.428,1.428,0,0,1-.6.2.6.6,0,0,1-.4-.1.964.964,0,0,1-.6-.9v-13.992a.964.964,0,0,1,.6-.9.666.666,0,0,1,.376-.109,1.155,1.155,0,0,1,.624.209l9,7a.9.9,0,0,1,.4.8v-7a1.049,1.049,0,0,1,.5-.9,1,1,0,0,1,.453-.109,1.183,1.183,0,0,1,.647.209l9,7a.9.9,0,0,1,.4.8,1.218,1.218,0,0,1-.4.8l-9,7A1.427,1.427,0,0,1,824,1108Zm1-12.992V1105l6.4-5-6.4-5Zm-11,0V1105l6.4-5-6.4-5Z"/></g></svg>