<svg xmlns="http://www.w3.org/2000/svg" width="22" height="20" viewBox="0 0 22 20"><defs><style>.a{fill:#ff808b;}</style></defs><g transform="translate(0 0)"><path class="a" d="M10.984,20a.861.861,0,0,1-.674-.3L1.831,10.99A6.665,6.665,0,0,1,0,6.436,6.292,6.292,0,0,1,1.927,1.881a6.105,6.105,0,0,1,8.768,0l.385.4.385-.4A6.312,6.312,0,0,1,15.9,0a6.028,6.028,0,0,1,4.335,1.881,5.491,5.491,0,0,1,1.734,4.555,6.665,6.665,0,0,1-1.831,4.554L11.659,19.7A.865.865,0,0,1,10.984,20ZM6.263,1.98A3.966,3.966,0,0,0,3.276,3.268,4.824,4.824,0,0,0,2.023,6.436,4.385,4.385,0,0,0,3.276,9.6l7.8,8.02L18.885,9.6a4.5,4.5,0,0,0,1.348-3.168,4.827,4.827,0,0,0-1.252-3.168A4.562,4.562,0,0,0,15.9,1.98a4.611,4.611,0,0,0-3.18,1.288l-.963,1.089a.915.915,0,0,1-1.349,0L9.346,3.268A4.147,4.147,0,0,0,6.263,1.98Z" transform="translate(0 0)"/></g></svg>