<svg xmlns="http://www.w3.org/2000/svg" width="20" height="20" viewBox="0 0 20 20"><defs><style>.a{opacity:0.6;isolation:isolate;}.b{fill:#fff;}</style></defs><g class="a" transform="translate(-26 -816)"><path class="b" d="M43,836H42a2.947,2.947,0,0,1-3-3v-3a2.947,2.947,0,0,1,3-3h2v-1a8,8,0,0,0-16,0v1h2a2.947,2.947,0,0,1,3,3v3a2.947,2.947,0,0,1-3,3H29a2.946,2.946,0,0,1-3-3v-7a10,10,0,0,1,20,0v7a2.946,2.946,0,0,1-3,3Zm-1-7a.947.947,0,0,0-1,1v3a.947.947,0,0,0,1,1h1a.947.947,0,0,0,1-1v-4Zm-14,0v4a.947.947,0,0,0,1,1h1a.947.947,0,0,0,1-1v-3a.947.947,0,0,0-1-1Z"/></g></svg>