<svg xmlns="http://www.w3.org/2000/svg" width="21.999" height="20" viewBox="0 0 21.999 20"><defs><style>.a{opacity:0.6;isolation:isolate;}.b{fill:#fff;}</style></defs><g class="a" transform="translate(-25 -533)"><path class="b" d="M35.984,553a.861.861,0,0,1-.674-.3l-8.479-8.713A6.664,6.664,0,0,1,25,539.436a6.292,6.292,0,0,1,1.927-4.555,6.105,6.105,0,0,1,8.768,0l.385.4.385-.4A6.311,6.311,0,0,1,40.9,533a6.031,6.031,0,0,1,4.335,1.881,5.491,5.491,0,0,1,1.734,4.555,6.665,6.665,0,0,1-1.831,4.554L36.658,552.7A.861.861,0,0,1,35.984,553Zm-4.721-18.02a3.965,3.965,0,0,0-2.986,1.288,4.824,4.824,0,0,0-1.253,3.168,4.384,4.384,0,0,0,1.253,3.168l7.8,8.02,7.8-8.02a4.494,4.494,0,0,0,1.349-3.168,4.824,4.824,0,0,0-1.253-3.168A4.557,4.557,0,0,0,40.9,534.98a4.607,4.607,0,0,0-3.18,1.288l-.964,1.089a.914.914,0,0,1-1.348,0l-1.06-1.089A4.151,4.151,0,0,0,31.262,534.98Z"/></g></svg>