<svg xmlns="http://www.w3.org/2000/svg" width="22" height="20" viewBox="0 0 22 20"><defs><style>.a{opacity:0.6;isolation:isolate;}.b{fill:#fff;}</style></defs><g class="a" transform="translate(-25 -485)"><path class="b" d="M40.171,504.4a9.671,9.671,0,0,1-3.316.6,10.018,10.018,0,0,1-9.444-6.711,1.017,1.017,0,0,1,1.909-.7,8.037,8.037,0,0,0,15.171-5.309,8.422,8.422,0,0,0-4.119-4.608,8.117,8.117,0,0,0-6.129-.3,7.358,7.358,0,0,0-3.014,1.9l-2.914,2.7h3.517a1,1,0,1,1,0,2H25.5l-.1-.1c-.1,0-.1-.1-.2-.1h0a.1.1,0,0,0-.1-.1c0-.1-.1-.1-.1-.2V486.97a1,1,0,0,1,2.009,0v3.706l3.014-2.8a10.088,10.088,0,0,1,11.353-1.9A9.935,9.935,0,0,1,40.171,504.4Z"/></g></svg>