<svg xmlns="http://www.w3.org/2000/svg" width="20" height="20.001" viewBox="0 0 20 20.001"><defs><style>.a{opacity:0.6;isolation:isolate;}.b{fill:#fff;}</style></defs><g class="a" transform="translate(-26 -346)"><path class="b" d="M31,366H29a3,3,0,1,1,0-6h3V349a1.082,1.082,0,0,1,.8-1l12-2a1.082,1.082,0,0,1,.8.2.9.9,0,0,1,.4.8v14a2.946,2.946,0,0,1-3,3H41a3,3,0,1,1,0-6h3v-9.9l-10,1.7V363a2.947,2.947,0,0,1-3,3Zm-2-4a1,1,0,1,0,0,2h2a.947.947,0,0,0,1-1v-1Zm12-2a1,1,0,0,0,0,2h2a.947.947,0,0,0,1-1v-1Z"/></g></svg>