<svg xmlns="http://www.w3.org/2000/svg" width="22" height="16" viewBox="0 0 22 16"><defs><style>.a{fill:#4c4cab;}</style></defs><g transform="translate(-676 -1092)"><path class="a" d="M697,1108a1.426,1.426,0,0,1-.6-.2l-9-7a.894.894,0,0,1-.4-.787V1107a1.161,1.161,0,0,1-.6.9.606.606,0,0,1-.4.1,1.429,1.429,0,0,1-.6-.2l-9-7a.9.9,0,0,1-.4-.8,1.129,1.129,0,0,1,.3-.8l9-7a1.318,1.318,0,0,1,.691-.209.737.737,0,0,1,.409.109.964.964,0,0,1,.6.9v6.984a1.124,1.124,0,0,1,.3-.787l9-7a1.313,1.313,0,0,1,.69-.209.737.737,0,0,1,.409.109.965.965,0,0,1,.6.9V1107a1.163,1.163,0,0,1-.6.9A.606.606,0,0,1,697,1108Zm-1-12.992-6.4,5,6.4,5v-9.995Zm-11,0-6.4,5,6.4,5v-9.995Z"/></g></svg>