<svg xmlns="http://www.w3.org/2000/svg" width="20" height="22" viewBox="0 0 20 22"><defs><style>.a{opacity:0.6;isolation:isolate;}.b{fill:#fff;}</style></defs><g class="a" transform="translate(-26 -580)"><path class="b" d="M43,602H29a2.946,2.946,0,0,1-3-3v-3a1,1,0,0,1,2,0v3a.947.947,0,0,0,1,1H43a.947.947,0,0,0,1-1v-3a1,1,0,0,1,2,0v3a2.946,2.946,0,0,1-3,3Zm-7-6a.6.6,0,0,1-.4-.1c-.1,0-.2-.1-.3-.2l-4-4a.99.99,0,1,1,1.4-1.4l2.3,2.3V581a1,1,0,1,1,2,0v11.6l2.3-2.3a.99.99,0,1,1,1.4,1.4l-4,4a.523.523,0,0,1-.15.1.523.523,0,0,0-.15.1A.6.6,0,0,1,36,596Z"/></g></svg>