<svg xmlns="http://www.w3.org/2000/svg" width="22" height="16" viewBox="0 0 22 16"><defs><style>.a{opacity:0.6;isolation:isolate;}.b{fill:#fff;}</style></defs><g class="a" transform="translate(-25 -252)"><path class="b" d="M43.084,268a1.081,1.081,0,0,1-.7-.3.948.948,0,0,1,0-1.383,8.819,8.819,0,0,0,0-12.543.947.947,0,0,1,0-1.382.971.971,0,0,1,1.4,0A10.507,10.507,0,0,1,47,259.949a10.745,10.745,0,0,1-3.218,7.755A1.082,1.082,0,0,1,43.084,268Zm-14.168,0a1.082,1.082,0,0,1-.7-.3,10.831,10.831,0,0,1,0-15.408.971.971,0,0,1,1.4,0,.949.949,0,0,1,0,1.383,8.937,8.937,0,0,0,0,12.641.949.949,0,0,1,0,1.383A1.081,1.081,0,0,1,28.916,268Zm11.374-2.865c-.2,0-.3,0-.4-.1a.85.85,0,0,1-.495-.519.915.915,0,0,1,.1-.765l.014-.014.286-.283a4.816,4.816,0,0,0,1.409-3.471,4.768,4.768,0,0,0-1.509-3.443.947.947,0,0,1,0-1.382.971.971,0,0,1,1.4,0,6.9,6.9,0,0,1-.1,9.679A1.078,1.078,0,0,1,40.29,265.135Zm-8.481,0a1.078,1.078,0,0,1-.7-.3,6.925,6.925,0,0,1,0-9.778.971.971,0,0,1,1.4,0,.948.948,0,0,1,0,1.382,4.976,4.976,0,0,0-1.5,3.556,4.611,4.611,0,0,0,1.5,3.457.948.948,0,0,1,0,1.382A1.078,1.078,0,0,1,31.81,265.135ZM36,262.96A2.96,2.96,0,1,1,38.99,260,2.978,2.978,0,0,1,36,262.96Zm0-3.95a.99.99,0,1,0,1,.99A1,1,0,0,0,36,259.01Z"/></g></svg>