<svg xmlns="http://www.w3.org/2000/svg" width="22" height="22" viewBox="0 0 22 22"><defs><style>.a{opacity:0.6;isolation:isolate;}.b{fill:#fff;}</style></defs><g class="a" transform="translate(-25 -201)"><path class="b" d="M36,223a11,11,0,1,1,7.778-3.222A10.928,10.928,0,0,1,36,223Zm5-10a17.324,17.324,0,0,1-2.7,7.7A9.225,9.225,0,0,0,45,213H41Zm-13.9,0h0a8.954,8.954,0,0,0,6.7,7.7,15.186,15.186,0,0,1-2.7-7.7Zm6,0h0a12.709,12.709,0,0,0,3,7.4A14.892,14.892,0,0,0,39,213H33.1Zm5.1-9.7h0a15.185,15.185,0,0,1,2.7,7.7h4a8.954,8.954,0,0,0-6.7-7.7Zm-2.2.3h0a14.9,14.9,0,0,0-2.9,7.4h5.8a14.032,14.032,0,0,0-2.9-7.4Zm-2.3-.3a8.758,8.758,0,0,0-4.462,2.8A8.961,8.961,0,0,0,27.1,211h4A16.034,16.034,0,0,1,33.7,203.3Z"/></g></svg>