<svg xmlns="http://www.w3.org/2000/svg" width="214" height="53" viewBox="0 0 214 53"><defs><style>.a,.b{fill:#fff;}.a{font-size:32px;font-family:Roboto-Medium, Roboto;font-weight:500;opacity:0.502;}</style></defs><g transform="translate(-28 -42)"><text class="a" transform="translate(112 86)"><tspan x="0" y="0">Musicale</tspan></text><path class="b" d="M62.892,89.906v0l-6.347-15.87-3.4,4.539H46.286V75.524h5.333l5.742-7.655,5.843,14.6,3.474-6.949h7.037v3.048H68.561L62.893,89.9ZM85.9,87.714H82.857a6.1,6.1,0,0,1-6.095-6.095V64.857a16.762,16.762,0,0,0-33.524,0V81.619a6.1,6.1,0,0,1-6.095,6.095H34.1A6.1,6.1,0,0,1,28,81.619V72.476a6.1,6.1,0,0,1,6.1-6.095h3.047V64.857a22.857,22.857,0,0,1,45.714,0v1.525H85.9A6.1,6.1,0,0,1,92,72.476v9.143A6.1,6.1,0,0,1,85.9,87.714Z"/></g></svg>